<mxfile host="app.diagrams.net" modified="2023-02-24T12:13:36.299Z" agent="5.0 (Windows NT 10.0; Win64; x64) AppleWebKit/537.36 (KHTML, like Gecko) Chrome/108.0.0.0 YaBrowser/23.1.3.949 Yowser/2.5 Safari/537.36" etag="tQQzVMc4qD3CI1ltCWsd" version="20.6.0" type="github">
  <diagram id="C5RBs43oDa-KdzZeNtuy" name="Page-1">
    <mxGraphModel dx="1374" dy="781" grid="1" gridSize="10" guides="1" tooltips="1" connect="1" arrows="1" fold="1" page="1" pageScale="1" pageWidth="827" pageHeight="1169" math="0" shadow="0">
      <root>
        <mxCell id="WIyWlLk6GJQsqaUBKTNV-0" />
        <mxCell id="WIyWlLk6GJQsqaUBKTNV-1" parent="WIyWlLk6GJQsqaUBKTNV-0" />
        <mxCell id="OZCq7sMvK3UTRiwCtcQ2-2" value="" style="edgeStyle=orthogonalEdgeStyle;rounded=0;orthogonalLoop=1;jettySize=auto;html=1;" edge="1" parent="WIyWlLk6GJQsqaUBKTNV-1" source="OZCq7sMvK3UTRiwCtcQ2-0" target="OZCq7sMvK3UTRiwCtcQ2-1">
          <mxGeometry relative="1" as="geometry" />
        </mxCell>
        <mxCell id="OZCq7sMvK3UTRiwCtcQ2-0" value="Start" style="ellipse;whiteSpace=wrap;html=1;" vertex="1" parent="WIyWlLk6GJQsqaUBKTNV-1">
          <mxGeometry x="60" y="40" width="120" height="80" as="geometry" />
        </mxCell>
        <mxCell id="OZCq7sMvK3UTRiwCtcQ2-4" value="" style="edgeStyle=orthogonalEdgeStyle;rounded=0;orthogonalLoop=1;jettySize=auto;html=1;" edge="1" parent="WIyWlLk6GJQsqaUBKTNV-1" source="OZCq7sMvK3UTRiwCtcQ2-1" target="OZCq7sMvK3UTRiwCtcQ2-3">
          <mxGeometry relative="1" as="geometry" />
        </mxCell>
        <mxCell id="OZCq7sMvK3UTRiwCtcQ2-1" value="array = [input user];&lt;br&gt;finalArray = [result];&lt;br&gt;arrayLength = [input user]&lt;br&gt;needLength = 3;&amp;nbsp;&lt;br&gt;n = 0" style="whiteSpace=wrap;html=1;" vertex="1" parent="WIyWlLk6GJQsqaUBKTNV-1">
          <mxGeometry x="40" y="160" width="160" height="80" as="geometry" />
        </mxCell>
        <mxCell id="OZCq7sMvK3UTRiwCtcQ2-6" value="" style="edgeStyle=orthogonalEdgeStyle;rounded=0;orthogonalLoop=1;jettySize=auto;html=1;" edge="1" parent="WIyWlLk6GJQsqaUBKTNV-1" source="OZCq7sMvK3UTRiwCtcQ2-3" target="OZCq7sMvK3UTRiwCtcQ2-5">
          <mxGeometry relative="1" as="geometry" />
        </mxCell>
        <mxCell id="OZCq7sMvK3UTRiwCtcQ2-3" value="array&amp;nbsp;&lt;br&gt;finalArray&lt;br&gt;arrayLength&lt;br&gt;needLength&lt;br&gt;n" style="shape=parallelogram;perimeter=parallelogramPerimeter;whiteSpace=wrap;html=1;fixedSize=1;" vertex="1" parent="WIyWlLk6GJQsqaUBKTNV-1">
          <mxGeometry x="40" y="280" width="160" height="80" as="geometry" />
        </mxCell>
        <mxCell id="OZCq7sMvK3UTRiwCtcQ2-8" value="" style="edgeStyle=orthogonalEdgeStyle;rounded=0;orthogonalLoop=1;jettySize=auto;html=1;" edge="1" parent="WIyWlLk6GJQsqaUBKTNV-1" source="OZCq7sMvK3UTRiwCtcQ2-5" target="OZCq7sMvK3UTRiwCtcQ2-7">
          <mxGeometry relative="1" as="geometry" />
        </mxCell>
        <mxCell id="OZCq7sMvK3UTRiwCtcQ2-5" value="WriteLine = &quot;Введите длину&quot;;&lt;br&gt;arrayLength = [Input user]" style="whiteSpace=wrap;html=1;" vertex="1" parent="WIyWlLk6GJQsqaUBKTNV-1">
          <mxGeometry x="40" y="400" width="160" height="80" as="geometry" />
        </mxCell>
        <mxCell id="OZCq7sMvK3UTRiwCtcQ2-10" value="" style="edgeStyle=orthogonalEdgeStyle;rounded=0;orthogonalLoop=1;jettySize=auto;html=1;" edge="1" parent="WIyWlLk6GJQsqaUBKTNV-1" source="OZCq7sMvK3UTRiwCtcQ2-7" target="OZCq7sMvK3UTRiwCtcQ2-9">
          <mxGeometry relative="1" as="geometry" />
        </mxCell>
        <mxCell id="OZCq7sMvK3UTRiwCtcQ2-19" value="False" style="edgeLabel;html=1;align=center;verticalAlign=middle;resizable=0;points=[];" vertex="1" connectable="0" parent="OZCq7sMvK3UTRiwCtcQ2-10">
          <mxGeometry x="-0.2528" relative="1" as="geometry">
            <mxPoint as="offset" />
          </mxGeometry>
        </mxCell>
        <mxCell id="OZCq7sMvK3UTRiwCtcQ2-13" style="edgeStyle=orthogonalEdgeStyle;rounded=0;orthogonalLoop=1;jettySize=auto;html=1;entryX=0;entryY=0.5;entryDx=0;entryDy=0;" edge="1" parent="WIyWlLk6GJQsqaUBKTNV-1" source="OZCq7sMvK3UTRiwCtcQ2-7" target="OZCq7sMvK3UTRiwCtcQ2-12">
          <mxGeometry relative="1" as="geometry" />
        </mxCell>
        <mxCell id="OZCq7sMvK3UTRiwCtcQ2-18" value="True" style="edgeLabel;html=1;align=center;verticalAlign=middle;resizable=0;points=[];" vertex="1" connectable="0" parent="OZCq7sMvK3UTRiwCtcQ2-13">
          <mxGeometry x="-0.914" relative="1" as="geometry">
            <mxPoint x="-4" as="offset" />
          </mxGeometry>
        </mxCell>
        <mxCell id="OZCq7sMvK3UTRiwCtcQ2-7" value="n &amp;lt; arrayLength" style="rhombus;whiteSpace=wrap;html=1;" vertex="1" parent="WIyWlLk6GJQsqaUBKTNV-1">
          <mxGeometry x="40" y="519.5" width="160" height="160.5" as="geometry" />
        </mxCell>
        <mxCell id="OZCq7sMvK3UTRiwCtcQ2-11" style="edgeStyle=orthogonalEdgeStyle;rounded=0;orthogonalLoop=1;jettySize=auto;html=1;entryX=0;entryY=0.5;entryDx=0;entryDy=0;exitX=0;exitY=0.5;exitDx=0;exitDy=0;" edge="1" parent="WIyWlLk6GJQsqaUBKTNV-1" source="OZCq7sMvK3UTRiwCtcQ2-9" target="OZCq7sMvK3UTRiwCtcQ2-7">
          <mxGeometry relative="1" as="geometry" />
        </mxCell>
        <mxCell id="OZCq7sMvK3UTRiwCtcQ2-9" value="WhiteLine = &quot;Введите значение (n +1) элемента&quot;;&lt;br&gt;array[n] = [Input user];&lt;br&gt;n++;" style="whiteSpace=wrap;html=1;" vertex="1" parent="WIyWlLk6GJQsqaUBKTNV-1">
          <mxGeometry x="40" y="720" width="160" height="80" as="geometry" />
        </mxCell>
        <mxCell id="OZCq7sMvK3UTRiwCtcQ2-17" value="" style="edgeStyle=orthogonalEdgeStyle;rounded=0;orthogonalLoop=1;jettySize=auto;html=1;" edge="1" parent="WIyWlLk6GJQsqaUBKTNV-1" source="OZCq7sMvK3UTRiwCtcQ2-12" target="OZCq7sMvK3UTRiwCtcQ2-16">
          <mxGeometry relative="1" as="geometry" />
        </mxCell>
        <mxCell id="OZCq7sMvK3UTRiwCtcQ2-20" value="True" style="edgeLabel;html=1;align=center;verticalAlign=middle;resizable=0;points=[];" vertex="1" connectable="0" parent="OZCq7sMvK3UTRiwCtcQ2-17">
          <mxGeometry x="-0.2748" y="-2" relative="1" as="geometry">
            <mxPoint as="offset" />
          </mxGeometry>
        </mxCell>
        <mxCell id="OZCq7sMvK3UTRiwCtcQ2-35" value="" style="edgeStyle=orthogonalEdgeStyle;rounded=0;orthogonalLoop=1;jettySize=auto;html=1;" edge="1" parent="WIyWlLk6GJQsqaUBKTNV-1" source="OZCq7sMvK3UTRiwCtcQ2-12" target="OZCq7sMvK3UTRiwCtcQ2-34">
          <mxGeometry relative="1" as="geometry" />
        </mxCell>
        <mxCell id="OZCq7sMvK3UTRiwCtcQ2-36" value="False" style="edgeLabel;html=1;align=center;verticalAlign=middle;resizable=0;points=[];" vertex="1" connectable="0" parent="OZCq7sMvK3UTRiwCtcQ2-35">
          <mxGeometry x="-0.2212" y="-1" relative="1" as="geometry">
            <mxPoint as="offset" />
          </mxGeometry>
        </mxCell>
        <mxCell id="OZCq7sMvK3UTRiwCtcQ2-12" value="n &amp;lt; arrayLength" style="rhombus;whiteSpace=wrap;html=1;" vertex="1" parent="WIyWlLk6GJQsqaUBKTNV-1">
          <mxGeometry x="280" y="40" width="160" height="160.5" as="geometry" />
        </mxCell>
        <mxCell id="OZCq7sMvK3UTRiwCtcQ2-22" value="" style="edgeStyle=orthogonalEdgeStyle;rounded=0;orthogonalLoop=1;jettySize=auto;html=1;" edge="1" parent="WIyWlLk6GJQsqaUBKTNV-1" source="OZCq7sMvK3UTRiwCtcQ2-16" target="OZCq7sMvK3UTRiwCtcQ2-21">
          <mxGeometry relative="1" as="geometry" />
        </mxCell>
        <mxCell id="OZCq7sMvK3UTRiwCtcQ2-31" value="True" style="edgeLabel;html=1;align=center;verticalAlign=middle;resizable=0;points=[];" vertex="1" connectable="0" parent="OZCq7sMvK3UTRiwCtcQ2-22">
          <mxGeometry x="-0.28" relative="1" as="geometry">
            <mxPoint as="offset" />
          </mxGeometry>
        </mxCell>
        <mxCell id="OZCq7sMvK3UTRiwCtcQ2-25" style="edgeStyle=orthogonalEdgeStyle;rounded=0;orthogonalLoop=1;jettySize=auto;html=1;entryX=1;entryY=0.5;entryDx=0;entryDy=0;" edge="1" parent="WIyWlLk6GJQsqaUBKTNV-1" source="OZCq7sMvK3UTRiwCtcQ2-16" target="OZCq7sMvK3UTRiwCtcQ2-23">
          <mxGeometry relative="1" as="geometry">
            <Array as="points">
              <mxPoint x="440" y="300" />
              <mxPoint x="440" y="549" />
            </Array>
          </mxGeometry>
        </mxCell>
        <mxCell id="OZCq7sMvK3UTRiwCtcQ2-32" value="False" style="edgeLabel;html=1;align=center;verticalAlign=middle;resizable=0;points=[];" vertex="1" connectable="0" parent="OZCq7sMvK3UTRiwCtcQ2-25">
          <mxGeometry x="-0.8948" relative="1" as="geometry">
            <mxPoint x="5" y="20" as="offset" />
          </mxGeometry>
        </mxCell>
        <mxCell id="OZCq7sMvK3UTRiwCtcQ2-16" value="array[n] &amp;lt; needLength" style="rhombus;whiteSpace=wrap;html=1;" vertex="1" parent="WIyWlLk6GJQsqaUBKTNV-1">
          <mxGeometry x="300" y="240" width="120" height="120" as="geometry" />
        </mxCell>
        <mxCell id="OZCq7sMvK3UTRiwCtcQ2-24" value="" style="edgeStyle=orthogonalEdgeStyle;rounded=0;orthogonalLoop=1;jettySize=auto;html=1;" edge="1" parent="WIyWlLk6GJQsqaUBKTNV-1" source="OZCq7sMvK3UTRiwCtcQ2-21" target="OZCq7sMvK3UTRiwCtcQ2-23">
          <mxGeometry relative="1" as="geometry" />
        </mxCell>
        <mxCell id="OZCq7sMvK3UTRiwCtcQ2-21" value="finalArray[n] = array [n]" style="whiteSpace=wrap;html=1;" vertex="1" parent="WIyWlLk6GJQsqaUBKTNV-1">
          <mxGeometry x="300" y="410" width="120" height="60" as="geometry" />
        </mxCell>
        <mxCell id="OZCq7sMvK3UTRiwCtcQ2-23" value="n++" style="whiteSpace=wrap;html=1;" vertex="1" parent="WIyWlLk6GJQsqaUBKTNV-1">
          <mxGeometry x="300" y="519.5" width="120" height="60" as="geometry" />
        </mxCell>
        <mxCell id="OZCq7sMvK3UTRiwCtcQ2-30" style="edgeStyle=orthogonalEdgeStyle;rounded=0;orthogonalLoop=1;jettySize=auto;html=1;exitX=0.5;exitY=1;exitDx=0;exitDy=0;" edge="1" parent="WIyWlLk6GJQsqaUBKTNV-1" source="OZCq7sMvK3UTRiwCtcQ2-23">
          <mxGeometry relative="1" as="geometry">
            <mxPoint x="390" y="630" as="sourcePoint" />
            <mxPoint x="240" y="600" as="targetPoint" />
            <Array as="points">
              <mxPoint x="360" y="600" />
            </Array>
          </mxGeometry>
        </mxCell>
        <mxCell id="OZCq7sMvK3UTRiwCtcQ2-34" value="WhireLine finalArray" style="shape=document;whiteSpace=wrap;html=1;boundedLbl=1;" vertex="1" parent="WIyWlLk6GJQsqaUBKTNV-1">
          <mxGeometry x="520" y="80" width="120" height="80" as="geometry" />
        </mxCell>
      </root>
    </mxGraphModel>
  </diagram>
</mxfile>
